<svg width="97" height="120" viewBox="0 0 97 120" fill="none" xmlns="http://www.w3.org/2000/svg">
    <path d="M3.75278 21.5C2.14508 18.7154 2.14508 15.2846 3.75277 12.5L16.9793 -10.409C18.587 -13.1936 21.5581 -14.909 24.7735 -14.909L51.2265 -14.909C54.4419 -14.909 57.413 -13.1936 59.0207 -10.409L72.2472 12.5C73.8549 15.2846 73.8549 18.7154 72.2472 21.5L59.0207 44.409C57.413 47.1936 54.4419 48.909 51.2265 48.909L24.7735 48.909C21.5581 48.909 18.587 47.1936 16.9793 44.409L3.75278 21.5Z"
          stroke="white" stroke-opacity="0.2" stroke-width="2"/>
    <path d="M66.7528 -15.5C65.1451 -18.2846 65.1451 -21.7154 66.7528 -24.5L79.9793 -47.409C81.587 -50.1936 84.5581 -51.909 87.7735 -51.909L114.226 -51.909C117.442 -51.909 120.413 -50.1936 122.021 -47.409L135.247 -24.5C136.855 -21.7154 136.855 -18.2846 135.247 -15.5L122.021 7.40896C120.413 10.1936 117.442 11.909 114.226 11.909L87.7735 11.909C84.5581 11.909 81.587 10.1936 79.9793 7.40897L66.7528 -15.5Z"
          stroke="white" stroke-opacity="0.2" stroke-width="2"/>
    <path d="M66.7528 56.5C65.1451 53.7154 65.1451 50.2846 66.7528 47.5L79.9793 24.591C81.587 21.8064 84.5581 20.091 87.7735 20.091L114.226 20.091C117.442 20.091 120.413 21.8064 122.021 24.591L135.247 47.5C136.855 50.2846 136.855 53.7154 135.247 56.5L122.021 79.409C120.413 82.1936 117.442 83.909 114.226 83.909L87.7735 83.909C84.5581 83.909 81.587 82.1936 79.9793 79.409L66.7528 56.5Z"
          stroke="white" stroke-opacity="0.2" stroke-width="2"/>
</svg>
