<svg width="16" height="16" viewBox="0 0 16 16" fill="none" xmlns="http://www.w3.org/2000/svg">
    <path d="M12.7856 7.38571C12.6268 7.22689 12.4362 7.16336 12.2456 7.16336C12.055 7.16336 11.8644 7.22689 11.7056 7.38571L8.68803 10.4033L8.68803 2.76234C8.68803 2.34941 8.33863 2 7.92569 2C7.51276 2 7.16336 2.34941 7.16336 2.76234L7.16336 10.4033L4.14577 7.38571C3.8599 7.09983 3.35167 7.09983 3.0658 7.38571C2.77992 7.67158 2.77992 8.17981 3.0658 8.46568L7.38571 12.7856C7.67158 13.0715 8.17981 13.0715 8.46568 12.7856L12.7856 8.46568C13.0715 8.17981 13.0715 7.67158 12.7856 7.38571Z"
          fill="black"/>
</svg>
