<svg viewBox="0 0 16 20" fill="none" xmlns="http://www.w3.org/2000/svg">
    <path d="M5.71429 4.85718C5.71429 3.59646 6.73929 2.57146 8 2.57146C9.26071 2.57146 10.2857 3.59646 10.2857 4.85718V6.57146H5.71429V4.85718ZM4 6.57146H1.71429C0.767857 6.57146 0 7.33932 0 8.28575V15.7143C0 17.6072 1.53571 19.1429 3.42857 19.1429H12.5714C14.4643 19.1429 16 17.6072 16 15.7143V8.28575C16 7.33932 15.2321 6.57146 14.2857 6.57146H12V4.85718C12 2.64646 10.2107 0.857178 8 0.857178C5.78929 0.857178 4 2.64646 4 4.85718V6.57146ZM4.85714 8.28575C5.08447 8.28575 5.30249 8.37606 5.46323 8.5368C5.62398 8.69755 5.71429 8.91556 5.71429 9.14289C5.71429 9.37022 5.62398 9.58824 5.46323 9.74898C5.30249 9.90973 5.08447 10 4.85714 10C4.62981 10 4.4118 9.90973 4.25105 9.74898C4.09031 9.58824 4 9.37022 4 9.14289C4 8.91556 4.09031 8.69755 4.25105 8.5368C4.4118 8.37606 4.62981 8.28575 4.85714 8.28575ZM10.2857 9.14289C10.2857 8.91556 10.376 8.69755 10.5368 8.5368C10.6975 8.37606 10.9155 8.28575 11.1429 8.28575C11.3702 8.28575 11.5882 8.37606 11.7489 8.5368C11.9097 8.69755 12 8.91556 12 9.14289C12 9.37022 11.9097 9.58824 11.7489 9.74898C11.5882 9.90973 11.3702 10 11.1429 10C10.9155 10 10.6975 9.90973 10.5368 9.74898C10.376 9.58824 10.2857 9.37022 10.2857 9.14289Z"
          fill="currentColor"/>
</svg>
