<svg viewBox="0 0 17 16" fill="none" xmlns="http://www.w3.org/2000/svg">
    <path fill-rule="evenodd" clip-rule="evenodd"
          d="M1.84398 1.25C1.3764 1.25 1.00023 1.62617 1.00023 2.09375C1.00023 2.56133 1.3764 2.9375 1.84398 2.9375H15.9065C16.3741 2.9375 16.7502 2.56133 16.7502 2.09375C16.7502 1.62617 16.3741 1.25 15.9065 1.25H1.84398ZM4.75023 8.5625V10.4597C4.75023 10.8789 4.26526 11.112 3.93788 10.8501L0.27164 7.91713C0.0111008 7.7087 0.0239168 7.30842 0.297256 7.11708L3.9635 4.55071C4.29488 4.31874 4.75023 4.55582 4.75023 4.96033V6.875H15.9065C16.3741 6.875 16.7502 7.25117 16.7502 7.71875C16.7502 8.18633 16.3741 8.5625 15.9065 8.5625H4.75023ZM15.9065 14.1875C16.3741 14.1875 16.7502 13.8113 16.7502 13.3438C16.7502 12.8762 16.3741 12.5 15.9065 12.5H1.84398C1.3764 12.5 1.00023 12.8762 1.00023 13.3438C1.00023 13.8113 1.3764 14.1875 1.84398 14.1875H15.9065Z"
          fill="currentColor"/>
</svg>
