<svg viewBox="0 0 16 16" fill="none" xmlns="http://www.w3.org/2000/svg">
    <g clip-path="url(#clip0_2102_344)">
        <path d="M7 2.5V1C7 0.446875 7.44688 0 8 0C8.55313 0 9 0.446875 9 1V2.5C9 3.05312 8.55313 3.5 8 3.5C7.44688 3.5 7 3.05312 7 2.5ZM5 8C5 7.20435 5.31607 6.44129 5.87868 5.87868C6.44129 5.31607 7.20435 5 8 5C8.79565 5 9.55871 5.31607 10.1213 5.87868C10.6839 6.44129 11 7.20435 11 8C11 8.79565 10.6839 9.55871 10.1213 10.1213C9.55871 10.6839 8.79565 11 8 11C7.20435 11 6.44129 10.6839 5.87868 10.1213C5.31607 9.55871 5 8.79565 5 8ZM0 8C0 7.44688 0.446875 7 1 7H2.5C3.05312 7 3.5 7.44688 3.5 8C3.5 8.55313 3.05312 9 2.5 9H1C0.446875 9 0 8.55313 0 8ZM13.5 7H15C15.5531 7 16 7.44688 16 8C16 8.55313 15.5531 9 15 9H13.5C12.9469 9 12.5 8.55313 12.5 8C12.5 7.44688 12.9469 7 13.5 7ZM8 16C7.44688 16 7 15.5531 7 15V13.5C7 12.9469 7.44688 12.5 8 12.5C8.55313 12.5 9 12.9469 9 13.5V15C9 15.5531 8.55313 16 8 16ZM2.29375 13.7063C1.90313 13.3156 1.90313 12.6812 2.29375 12.2906L3.29375 11.2906C3.68438 10.9 4.31875 10.9 4.70937 11.2906C5.1 11.6812 5.1 12.3156 4.70937 12.7063L3.70937 13.7063C3.31875 14.0969 2.68438 14.0969 2.29375 13.7063ZM11.2937 3.29063L12.2937 2.29063C12.6844 1.9 13.3188 1.9 13.7094 2.29063C14.1 2.68125 14.1 3.31562 13.7094 3.70625L12.7094 4.70625C12.3188 5.09688 11.6844 5.09688 11.2937 4.70625C10.9031 4.31563 10.9031 3.68125 11.2937 3.29063ZM13.7094 13.7063C13.3188 14.0969 12.6844 14.0969 12.2937 13.7063L11.2937 12.7063C10.9031 12.3156 10.9031 11.6812 11.2937 11.2906C11.6844 10.9 12.3188 10.9 12.7094 11.2906L13.7094 12.2906C14.1 12.6812 14.1 13.3156 13.7094 13.7063ZM3.29375 4.70625L2.29375 3.70625C1.90313 3.31562 1.90313 2.68125 2.29375 2.29063C2.68438 1.9 3.31875 1.9 3.70937 2.29063L4.70937 3.29063C5.1 3.68125 5.1 4.31563 4.70937 4.70625C4.31875 5.09688 3.68438 5.09688 3.29375 4.70625Z"
              fill="currentColor"/>
    </g>
    <defs>
        <clipPath id="clip0_2102_344">
            <rect width="16" height="16"/>
        </clipPath>
    </defs>
</svg>
