<svg viewBox="0 0 16 16" fill="none" xmlns="http://www.w3.org/2000/svg">
    <g clip-path="url(#clip0_2182_6457)">
        <g clip-path="url(#clip1_2182_6457)">
            <path d="M15 1.00003C15 0.596906 14.7563 0.231281 14.3813 0.0750307C14.0063 -0.0812193 13.5781 0.00628069 13.2906 0.290656L11.9281 1.65628C10.4281 3.15628 8.39375 4.00003 6.27187 4.00003H6H5H2C0.896875 4.00003 0 4.89691 0 6.00003V9.00003C0 10.1032 0.896875 11 2 11V15C2 15.5532 2.44688 16 3 16H5C5.55312 16 6 15.5532 6 15V11H6.27187C8.39375 11 10.4281 11.8438 11.9281 13.3438L13.2906 14.7063C13.5781 14.9938 14.0063 15.0782 14.3813 14.9219C14.7563 14.7657 15 14.4032 15 13.9969V9.38441C15.5813 9.10941 16 8.36878 16 7.49691C16 6.62503 15.5813 5.88441 15 5.60941V1.00003ZM13 3.39691V7.50003V11.6032C11.1625 9.93128 8.76562 9.00003 6.27187 9.00003H6V6.00003H6.27187C8.76562 6.00003 11.1625 5.06878 13 3.39691Z"
                  fill="currentColor"/>
        </g>
    </g>
    <defs>
        <clipPath id="clip0_2182_6457">
            <rect width="16" height="16"/>
        </clipPath>
        <clipPath id="clip1_2182_6457">
            <rect width="16" height="16"/>
        </clipPath>
    </defs>
</svg>
