<svg viewBox="0 0 16 16" fill="none" xmlns="http://www.w3.org/2000/svg">
    <g clip-path="url(#clip0_2102_346)">
        <path d="M2.28571 -0.000244141C1.025 -0.000244141 0 1.02476 0 2.28547V13.714C0 14.9748 1.025 15.9998 2.28571 15.9998H13.7143C14.975 15.9998 16 14.9748 16 13.714V2.28547C16 1.02476 14.975 -0.000244141 13.7143 -0.000244141H2.28571ZM4.57143 6.8569C5.20357 6.8569 5.71429 7.36761 5.71429 7.99976V11.4283C5.71429 12.0605 5.20357 12.5712 4.57143 12.5712C3.93929 12.5712 3.42857 12.0605 3.42857 11.4283V7.99976C3.42857 7.36761 3.93929 6.8569 4.57143 6.8569ZM6.85714 4.57118C6.85714 3.93904 7.36786 3.42833 8 3.42833C8.63214 3.42833 9.14286 3.93904 9.14286 4.57118V11.4283C9.14286 12.0605 8.63214 12.5712 8 12.5712C7.36786 12.5712 6.85714 12.0605 6.85714 11.4283V4.57118ZM11.4286 9.14261C12.0607 9.14261 12.5714 9.65333 12.5714 10.2855V11.4283C12.5714 12.0605 12.0607 12.5712 11.4286 12.5712C10.7964 12.5712 10.2857 12.0605 10.2857 11.4283V10.2855C10.2857 9.65333 10.7964 9.14261 11.4286 9.14261Z"
              fill="currentColor"/>
    </g>
    <defs>
        <clipPath id="clip0_2102_346">
            <rect width="16" height="16"/>
        </clipPath>
    </defs>
</svg>
