<svg viewBox="0 0 16 16" xmlns="http://www.w3.org/2000/svg">
    <g clip-path="url(#clip0_2334_18368)">
        <path d="M0.970141 2.12752C0.710141 1.92252 0.33264 1.97002 0.127641 2.23002C-0.0773595 2.49002 -0.0298595 2.86752 0.230141 3.07252L15.0301 14.6725C15.2901 14.8775 15.6676 14.83 15.8726 14.57C16.0776 14.31 16.0301 13.9325 15.7701 13.7275L13.1401 11.6675C14.1301 10.6525 14.8001 9.51502 15.1376 8.70752C15.2201 8.51002 15.2201 8.29002 15.1376 8.09252C14.7651 7.20002 13.9826 5.90002 12.8126 4.81502C11.6376 3.72002 10.0201 2.80002 8.00014 2.80002C6.29514 2.80002 4.87514 3.45752 3.76764 4.32002L0.970141 2.12752ZM4.74514 5.08502C5.65014 4.44252 6.73764 4.00002 8.00014 4.00002C9.63014 4.00002 10.9701 4.74002 11.9976 5.69252C12.9601 6.58752 13.6251 7.65002 13.9651 8.40002C13.6501 9.10002 13.0501 10.07 12.1926 10.9225L10.8476 9.86752C11.0751 9.42752 11.2026 8.93002 11.2026 8.40002C11.2026 6.63252 9.77014 5.20002 8.00264 5.20002C7.19764 5.20002 6.46014 5.49752 5.89764 5.98752L4.74514 5.08502ZM9.87264 9.10502L7.83514 7.50752C7.94014 7.29502 8.00014 7.05252 8.00014 6.80002C8.00014 6.66252 7.98264 6.52752 7.95014 6.40002C7.96764 6.40002 7.98264 6.40002 8.00014 6.40002C9.10514 6.40002 10.0001 7.29502 10.0001 8.40002C10.0001 8.64752 9.95514 8.88502 9.87264 9.10502ZM10.1076 12.3625C9.47014 12.635 8.76764 12.8 8.00014 12.8C6.37014 12.8 5.03014 12.06 4.00264 11.1075C3.04014 10.2125 2.37514 9.15002 2.03514 8.40002C2.24264 7.94002 2.57264 7.36252 3.02014 6.78002L2.07764 6.03752C1.50764 6.78002 1.10014 7.52002 0.862641 8.09252C0.780141 8.29002 0.780141 8.51002 0.862641 8.70752C1.23514 9.60002 2.01764 10.9 3.18764 11.985C4.36264 13.08 5.98014 14 8.00014 14C9.19514 14 10.2476 13.6775 11.1551 13.1875L10.1076 12.3625ZM4.80014 8.40002C4.80014 10.1675 6.23264 11.6 8.00014 11.6C8.33264 11.6 8.65264 11.55 8.95514 11.455L7.55014 10.35C6.96264 10.215 6.47264 9.82002 6.20764 9.29252L4.80514 8.18752C4.80014 8.25752 4.79764 8.32752 4.79764 8.40002H4.80014Z"
              fill="black"/>
    </g>
    <defs>
        <clipPath id="clip0_2334_18368">
            <rect width="16" height="16" fill="white"/>
        </clipPath>
    </defs>
</svg>
