<svg viewBox="0 0 14 15" fill="none" xmlns="http://www.w3.org/2000/svg">
    <path d="M1.28135 0.718762C0.987598 0.428137 0.512598 0.428137 0.218848 0.718762C-0.0749023 1.00939 -0.0717774 1.48751 0.218848 1.78126L5.9376 7.50001L0.218848 13.2188C-0.0749023 13.5125 -0.0749023 13.9875 0.218848 14.2781C0.512598 14.5688 0.987598 14.5719 1.27822 14.2781L6.99697 8.55939L12.7188 14.2813C13.0126 14.575 13.4876 14.575 13.7782 14.2813C14.0688 13.9875 14.072 13.5125 13.7782 13.2219L8.05947 7.50314L13.7813 1.78126C14.0751 1.48751 14.0751 1.01251 13.7813 0.721887C13.4876 0.431262 13.0126 0.428137 12.722 0.721887L7.00322 6.44064L1.28135 0.718762Z"
          fill="currentColor"/>
</svg>
