<svg width="16" height="16" viewBox="0 0 16 16" fill="none" xmlns="http://www.w3.org/2000/svg">
    <path d="M1.80313 6.03125L2.09687 6.54375C2.35625 6.99687 2.78125 7.33125 3.28437 7.475L5.09375 7.99062C5.63125 8.14375 6 8.63438 6 9.19375V10.4406C6 10.7844 6.19375 11.0969 6.5 11.25C6.80625 11.4031 7 11.7156 7 12.0594V13.2781C7 13.7656 7.46562 14.1187 7.93437 13.9844C8.4375 13.8406 8.82812 13.4375 8.95625 12.9281L9.04375 12.5781C9.175 12.05 9.51875 11.5969 9.99063 11.3281L10.2437 11.1844C10.7125 10.9187 11 10.4188 11 9.88125V9.62187C11 9.225 10.8406 8.84375 10.5594 8.5625L10.4375 8.44063C10.1562 8.15938 9.775 8 9.37813 8H8.03125C7.68437 8 7.34062 7.90938 7.0375 7.7375L5.95937 7.12187C5.825 7.04375 5.72188 6.91875 5.67188 6.77187C5.57188 6.47187 5.70625 6.14687 5.99062 6.00625L6.175 5.9125C6.38125 5.80937 6.62187 5.79063 6.84062 5.86562L7.56563 6.10625C7.82188 6.19062 8.10312 6.09375 8.25 5.87187C8.39688 5.65312 8.38125 5.3625 8.2125 5.15938L7.7875 4.65C7.475 4.275 7.47813 3.72813 7.79688 3.35938L8.2875 2.7875C8.5625 2.46562 8.60625 2.00625 8.39688 1.64062L8.32187 1.50937C8.2125 1.50312 8.10625 1.5 7.99687 1.5C5.09687 1.5 2.6375 3.40313 1.80313 6.03125ZM14.5 8C14.5 6.85 14.2 5.76875 13.675 4.82812L12.875 5.15C12.3844 5.34688 12.1313 5.89375 12.2969 6.39375L12.825 7.97813C12.9344 8.30313 13.2 8.55 13.5312 8.63125L14.4406 8.85938C14.4781 8.57812 14.4969 8.29062 14.4969 8H14.5ZM0 8C0 5.87827 0.842855 3.84344 2.34315 2.34315C3.84344 0.842855 5.87827 0 8 0C10.1217 0 12.1566 0.842855 13.6569 2.34315C15.1571 3.84344 16 5.87827 16 8C16 10.1217 15.1571 12.1566 13.6569 13.6569C12.1566 15.1571 10.1217 16 8 16C5.87827 16 3.84344 15.1571 2.34315 13.6569C0.842855 12.1566 0 10.1217 0 8Z"
          fill="currentColor"/>
</svg>
