<svg viewBox="0 0 16 14" fill="none" xmlns="http://www.w3.org/2000/svg">
    <path d="M9.1875 12.25C9.1875 12.4906 8.99063 12.6875 8.75 12.6875H1.75C1.50937 12.6875 1.3125 12.4906 1.3125 12.25V1.75C1.3125 1.50937 1.50937 1.3125 1.75 1.3125H6.125V3.5C6.125 3.98398 6.51602 4.375 7 4.375H9.1875V7H10.5V4.22461C10.5 3.75977 10.3168 3.31406 9.98867 2.98594L7.51133 0.511328C7.1832 0.183203 6.74023 0 6.27539 0H1.75C0.784766 0 0 0.784766 0 1.75V12.25C0 13.2152 0.784766 14 1.75 14H8.75C9.71523 14 10.5 13.2152 10.5 12.25V10.0625H9.1875V12.25ZM13.3711 5.87891C13.1141 5.62187 12.6984 5.62187 12.4441 5.87891C12.1898 6.13594 12.1871 6.55156 12.4441 6.80586L13.5105 7.87227L5.90625 7.875C5.54258 7.875 5.25 8.16758 5.25 8.53125C5.25 8.89492 5.54258 9.1875 5.90625 9.1875H13.5105L12.4441 10.2539C12.1871 10.5109 12.1871 10.9266 12.4441 11.1809C12.7012 11.4352 13.1168 11.4379 13.3711 11.1809L15.5586 8.99336C15.8156 8.73633 15.8156 8.3207 15.5586 8.06641L13.3711 5.87891Z"
          fill="currentColor"/>
</svg>
