<svg viewBox="0 0 16 16" fill="none" xmlns="http://www.w3.org/2000/svg">
    <path d="M6.85714 1.71429C6.85714 0.767857 6.08929 0 5.14286 0H1.71429C0.767857 0 0 0.767857 0 1.71429V5.14286C0 6.08929 0.767857 6.85714 1.71429 6.85714H5.14286C6.08929 6.85714 6.85714 6.08929 6.85714 5.14286V1.71429ZM6.85714 10.8571C6.85714 9.91072 6.08929 9.14286 5.14286 9.14286H1.71429C0.767857 9.14286 0 9.91072 0 10.8571V14.2857C0 15.2321 0.767857 16 1.71429 16H5.14286C6.08929 16 6.85714 15.2321 6.85714 14.2857V10.8571ZM9.14286 1.71429V5.14286C9.14286 6.08929 9.91072 6.85714 10.8571 6.85714H14.2857C15.2321 6.85714 16 6.08929 16 5.14286V1.71429C16 0.767857 15.2321 0 14.2857 0H10.8571C9.91072 0 9.14286 0.767857 9.14286 1.71429ZM16 10.8571C16 9.91072 15.2321 9.14286 14.2857 9.14286H10.8571C9.91072 9.14286 9.14286 9.91072 9.14286 10.8571V14.2857C9.14286 15.2321 9.91072 16 10.8571 16H14.2857C15.2321 16 16 15.2321 16 14.2857V10.8571Z"
          fill="currentColor"/>
</svg>
