<svg width="84" height="32" viewBox="0 0 84 32" fill="none" xmlns="http://www.w3.org/2000/svg">
<path d="M47.961 7.92776L44.3012 17.8928H41.8712L38.2114 7.92776H40.3558L43.1006 15.8513L45.8309 7.92776H47.961Z" fill="black"/>
<path d="M51.1632 9.54088V12.0393H54.5226V13.624H51.1632V16.2653H54.9514V17.8928H49.1619V7.91339H54.9514V9.54088H51.1632Z" fill="black"/>
<path d="M65.3013 17.8928H63.3L58.7684 11.0542V17.8928H56.7671V7.91339H58.7684L63.3 14.7661V7.91339H65.3013V17.8928Z" fill="black"/>
<path d="M73.5281 8.54167C74.3239 8.95101 74.9386 9.53371 75.3723 10.2905C75.8059 11.047 76.0227 11.9252 76.0227 12.9246C76.0227 13.9239 75.8059 14.7973 75.3723 15.5442C74.9386 16.2916 74.3239 16.8698 73.5281 17.2789C72.7324 17.6883 71.8102 17.8928 70.7621 17.8928H67.2739V7.92776H70.7621C71.8102 7.92776 72.7324 8.13256 73.5281 8.54167ZM73.1207 15.3374C73.6925 14.7661 73.9784 13.962 73.9784 12.9246C73.9784 11.8873 73.6925 11.0758 73.1207 10.4903C72.5489 9.90492 71.7388 9.61246 70.6904 9.61246H69.2753V16.194H70.6904C71.7388 16.194 72.5489 15.9085 73.1207 15.3374Z" fill="black"/>
<path d="M79.5248 7.92776V17.8928H77.5234V7.92776H79.5248Z" fill="black"/>
<path d="M43.155 22.2203V22.8585H41.5147V28.2298H40.7291V22.8585H39.0801V22.2203H43.155Z" fill="#00B0F0"/>
<path d="M51.5033 22.8585V24.8673H53.6962V25.5139H51.5033V27.5832H53.9552V28.2298H50.7178V22.2116H53.9552V22.8585H51.5033Z" fill="#00B0F0"/>
<path d="M61.8456 23.6385C62.1103 23.1703 62.4716 22.8037 62.9291 22.5393C63.3867 22.275 63.8945 22.1428 64.4528 22.1428C65.109 22.1428 65.6816 22.301 66.1709 22.617C66.66 22.9333 67.0169 23.3815 67.2413 23.962H66.3003C66.1333 23.5999 65.8932 23.3211 65.5795 23.1257C65.2657 22.9303 64.8901 22.8325 64.4528 22.8325C64.0327 22.8325 63.6556 22.9303 63.3219 23.1257C62.9881 23.3211 62.7263 23.5984 62.5363 23.9577C62.3464 24.3171 62.2514 24.7381 62.2514 25.2207C62.2514 25.6979 62.3464 26.1162 62.5363 26.4753C62.7263 26.8346 62.9881 27.1119 63.3219 27.3073C63.6556 27.5027 64.0327 27.6003 64.4528 27.6003C64.8901 27.6003 65.2657 27.5042 65.5795 27.3115C65.8932 27.1191 66.1333 26.8418 66.3003 26.4795H67.2413C67.0169 27.0545 66.66 27.4985 66.1709 27.8115C65.6816 28.125 65.109 28.2815 64.4528 28.2815C63.8945 28.2815 63.3867 28.1508 62.9291 27.8893C62.4716 27.6278 62.1103 27.2642 61.8456 26.7987C61.5809 26.3329 61.4485 25.8071 61.4485 25.2207C61.4485 24.6345 61.5809 24.1073 61.8456 23.6385Z" fill="#00B0F0"/>
<path d="M79.6387 22.2203V28.2298H78.8531V25.5053H75.7882V28.2298H75.0027V22.2203H75.7882V24.8587H78.8531V22.2203H79.6387Z" fill="#00B0F0"/>
<path d="M15.5061 17.5833L23.9723 3.49136H35.8358L34.4746 5.74607H25.6102L15.5061 22.8885L4.36157 3.49136H7.65959L15.5061 17.5833Z" fill="black"/>
<path d="M18.7929 28.5086L17.228 25.8063L27.7248 7.81839H30.7173L18.7929 28.5086Z" fill="#00B0F0"/>
</svg>
