<svg viewBox="0 0 16 16" fill="none" xmlns="http://www.w3.org/2000/svg">
    <path d="M14.5 8C14.5 8.39782 14.342 8.77936 14.0607 9.06066C13.7794 9.34196 13.3978 9.5 13 9.5C12.6022 9.5 12.2206 9.34196 11.9393 9.06066C11.658 8.77936 11.5 8.39782 11.5 8C11.5 7.60218 11.658 7.22064 11.9393 6.93934C12.2206 6.65804 12.6022 6.5 13 6.5C13.3978 6.5 13.7794 6.65804 14.0607 6.93934C14.342 7.22064 14.5 7.60218 14.5 8ZM9.5 8C9.5 8.19698 9.4612 8.39204 9.38582 8.57403C9.31044 8.75601 9.19995 8.92137 9.06066 9.06066C8.92137 9.19995 8.75601 9.31044 8.57403 9.38582C8.39204 9.4612 8.19698 9.5 8 9.5C7.80302 9.5 7.60796 9.4612 7.42597 9.38582C7.24399 9.31044 7.07863 9.19995 6.93934 9.06066C6.80005 8.92137 6.68956 8.75601 6.61418 8.57403C6.5388 8.39204 6.5 8.19698 6.5 8C6.5 7.80302 6.5388 7.60796 6.61418 7.42597C6.68956 7.24399 6.80005 7.07863 6.93934 6.93934C7.07863 6.80005 7.24399 6.68956 7.42597 6.61418C7.60796 6.5388 7.80302 6.5 8 6.5C8.19698 6.5 8.39204 6.5388 8.57403 6.61418C8.75601 6.68956 8.92137 6.80005 9.06066 6.93934C9.19995 7.07863 9.31044 7.24399 9.38582 7.42597C9.4612 7.60796 9.5 7.80302 9.5 8ZM3 9.5C2.60218 9.5 2.22064 9.34196 1.93934 9.06066C1.65804 8.77936 1.5 8.39782 1.5 8C1.5 7.60218 1.65804 7.22064 1.93934 6.93934C2.22064 6.65804 2.60218 6.5 3 6.5C3.39782 6.5 3.77936 6.65804 4.06066 6.93934C4.34196 7.22064 4.5 7.60218 4.5 8C4.5 8.39782 4.34196 8.77936 4.06066 9.06066C3.77936 9.34196 3.39782 9.5 3 9.5Z"
          fill="currentColor"/>
</svg>
