<svg viewBox="0 0 16 14" xmlns="http://www.w3.org/2000/svg">
    <path d="M7.99979 2.22225C6.18868 2.22225 4.69979 3.04447 3.55813 4.1028C2.48868 5.09725 1.74979 6.2778 1.37202 7.11114C1.74979 7.94447 2.48868 9.12503 3.55535 10.1195C4.69979 11.1778 6.18868 12 7.99979 12C9.81091 12 11.2998 11.1778 12.4415 10.1195C13.5109 9.12503 14.2498 7.94447 14.6276 7.11114C14.2498 6.2778 13.5109 5.09725 12.4442 4.1028C11.2998 3.04447 9.81091 2.22225 7.99979 2.22225ZM2.64979 3.1278C3.95813 1.91114 5.75535 0.888916 7.99979 0.888916C10.2442 0.888916 12.0415 1.91114 13.3498 3.1278C14.6498 4.33614 15.5192 5.7778 15.9331 6.76947C16.0248 6.98892 16.0248 7.23336 15.9331 7.4528C15.5192 8.44447 14.6498 9.88892 13.3498 11.0945C12.0415 12.3111 10.2442 13.3334 7.99979 13.3334C5.75535 13.3334 3.95813 12.3111 2.64979 11.0945C1.34979 9.88892 0.480349 8.44447 0.0692383 7.4528C-0.0224284 7.23336 -0.0224284 6.98892 0.0692383 6.76947C0.480349 5.7778 1.34979 4.33336 2.64979 3.1278ZM7.99979 9.33336C9.22757 9.33336 10.222 8.33892 10.222 7.11114C10.222 5.88336 9.22757 4.88892 7.99979 4.88892C7.98035 4.88892 7.96368 4.88892 7.94424 4.88892C7.98035 5.03058 7.99979 5.18058 7.99979 5.33336C7.99979 6.31392 7.20257 7.11114 6.22202 7.11114C6.06924 7.11114 5.91924 7.09169 5.77757 7.05558C5.77757 7.07503 5.77757 7.09169 5.77757 7.11114C5.77757 8.33892 6.77202 9.33336 7.99979 9.33336ZM7.99979 3.55558C8.94279 3.55558 9.84716 3.93018 10.514 4.59698C11.1807 5.26378 11.5553 6.16815 11.5553 7.11114C11.5553 8.05413 11.1807 8.9585 10.514 9.6253C9.84716 10.2921 8.94279 10.6667 7.99979 10.6667C7.0568 10.6667 6.15243 10.2921 5.48564 9.6253C4.81884 8.9585 4.44424 8.05413 4.44424 7.11114C4.44424 6.16815 4.81884 5.26378 5.48564 4.59698C6.15243 3.93018 7.0568 3.55558 7.99979 3.55558Z"
          fill="currentColor"/>
</svg>
