<svg viewBox="0 0 16 16" fill="none" xmlns="http://www.w3.org/2000/svg">
    <path d="M9.06798 6.00391C8.8109 6.26094 8.8109 6.67656 9.06798 6.93086C9.32506 7.18516 9.74077 7.18789 9.99512 6.93086L13.6872 3.23945V5.59375C13.6872 5.95742 13.9799 6.25 14.3436 6.25C14.7074 6.25 15 5.95742 15 5.59375V1.65625C15 1.29258 14.7074 1 14.3436 1H10.4081C10.0443 1 9.75171 1.29258 9.75171 1.65625C9.75171 2.01992 10.0443 2.3125 10.4081 2.3125H12.7628L9.06798 6.00391ZM6.93475 9.99609C7.19183 9.73906 7.19183 9.32344 6.93475 9.06914C6.67767 8.81484 6.26197 8.81211 6.00762 9.06914L2.31276 12.7605V10.4062C2.31276 10.0426 2.02012 9.75 1.65638 9.75C1.29264 9.75 1 10.0426 1 10.4062V14.3438C1 14.7074 1.29264 15 1.65638 15H5.59465C5.95839 15 6.25103 14.7074 6.25103 14.3438C6.25103 13.9801 5.95839 13.6875 5.59465 13.6875H3.23989L6.93475 9.99609Z"
          fill="currentColor"/>
</svg>
