<svg viewBox="0 0 16 16" fill="none" xmlns="http://www.w3.org/2000/svg">
    <path d="M7.12436 2.41331C8.3738 2.41331 9.57207 2.90965 10.4556 3.79315C11.3391 4.67664 11.8354 5.87491 11.8354 7.12436C11.8354 8.3738 11.3391 9.57207 10.4556 10.4556C9.57207 11.3391 8.3738 11.8354 7.12436 11.8354C5.87491 11.8354 4.67664 11.3391 3.79315 10.4556C2.90965 9.57207 2.41331 8.3738 2.41331 7.12436C2.41331 5.87491 2.90965 4.67664 3.79315 3.79315C4.67664 2.90965 5.87491 2.41331 7.12436 2.41331ZM7.12436 13.2487C8.56122 13.2487 9.88326 12.7541 10.9256 11.9267L13.7913 14.7924C14.0681 15.0692 14.5156 15.0692 14.7895 14.7924C15.0633 14.5156 15.0662 14.0681 14.7895 13.7943L11.9267 10.9256C12.7541 9.88326 13.2487 8.56122 13.2487 7.12436C13.2487 3.74124 10.5075 1 7.12436 1C3.74124 1 1 3.74124 1 7.12436C1 10.5075 3.74124 13.2487 7.12436 13.2487ZM5.00439 6.4177C4.61278 6.4177 4.29773 6.73275 4.29773 7.12436C4.29773 7.51596 4.61278 7.83101 5.00439 7.83101H9.24433C9.63593 7.83101 9.95098 7.51596 9.95098 7.12436C9.95098 6.73275 9.63593 6.4177 9.24433 6.4177H5.00439Z"
          fill="currentColor"/>
</svg>
