<svg viewBox="0 0 16 16" xmlns="http://www.w3.org/2000/svg">
    <path d="M11.0615 6.68847C11.0615 5.52795 10.6006 4.41496 9.78024 3.59435C8.95984 2.77374 7.84715 2.31272 6.68694 2.31272C5.52674 2.31272 4.41405 2.77374 3.59365 3.59435C2.77326 4.41496 2.31237 5.52795 2.31237 6.68847C2.31237 7.84899 2.77326 8.96198 3.59365 9.78259C4.41405 10.6032 5.52674 11.0642 6.68694 11.0642C7.84715 11.0642 8.95984 10.6032 9.78024 9.78259C10.6006 8.96198 11.0615 7.84899 11.0615 6.68847ZM10.2167 11.149C9.2488 11.9175 8.02119 12.3769 6.68694 12.3769C3.54545 12.3769 1 9.83081 1 6.68847C1 3.54614 3.54545 1 6.68694 1C9.82843 1 12.3739 3.54614 12.3739 6.68847C12.3739 8.02307 11.9146 9.25102 11.1463 10.2192L14.8072 13.8811C15.0643 14.1382 15.0643 14.5539 14.8072 14.8082C14.5502 15.0626 14.1347 15.0653 13.8804 14.8082L10.2167 11.149Z"
          fill="currentColor"/>
</svg>
