<svg viewBox="0 0 16 16" fill="none" xmlns="http://www.w3.org/2000/svg">
    <path d="M6 2.25H0.75C0.34375 2.25 0 2.59375 0 3C0 3.40625 0.34375 3.75 0.75 3.75H6V2.25ZM15.25 7.25H12.5V6.75C12.5 6.34375 12.1562 6 11.75 6C11.3438 6 11 6.34375 11 6.75V9.25C11 9.65625 11.3438 10 11.75 10C12.1562 10 12.5 9.65625 12.5 9.25V8.75H15.25C15.6562 8.75 16 8.40625 16 8C16 7.59375 15.6562 7.25 15.25 7.25ZM15.25 12.25H5.5V11.75C5.5 11.3438 5.15625 11 4.75 11C4.34375 11 4 11.3438 4 11.75V14.25C4 14.6562 4.34375 15 4.75 15C5.15625 15 5.5 14.6562 5.5 14.25V13.75H15.25C15.6562 13.75 16 13.4062 16 13C16 12.5938 15.6562 12.25 15.25 12.25ZM10 7.25H0.75C0.34375 7.25 0 7.59375 0 8C0 8.40625 0.34375 8.75 0.75 8.75H10V7.25ZM0.75 13.75H3V12.25H0.75C0.34375 12.25 0 12.5938 0 13C0 13.4062 0.34375 13.75 0.75 13.75ZM7.75 5C8.15625 5 8.5 4.65625 8.5 4.25V3.75H15.25C15.6562 3.75 16 3.40625 16 3C16 2.59375 15.6562 2.25 15.25 2.25H8.5V1.75C8.5 1.34375 8.15625 1 7.75 1C7.34375 1 7 1.34375 7 1.75V4.25C7 4.65625 7.34375 5 7.75 5Z"
          fill="currentColor"/>
</svg>
